<svg width="40" height="40" viewBox="0 0 40 40" fill="none" xmlns="http://www.w3.org/2000/svg">
<g clip-path="url(#clip0_30_417)">
<path d="M39.9998 40V37.7778C39.9998 36.0096 39.2974 34.3139 38.0472 33.0637C36.7969 31.8135 35.1012 31.1111 33.3331 31.1111H15.5553C13.7872 31.1111 12.0915 31.8135 10.8413 33.0637C9.59105 34.3139 8.88867 36.0096 8.88867 37.7778V40H39.9998Z" fill="#CCD6DD"/>
<path d="M19.5996 31.1533C19.5996 34.3156 29.2885 34.4445 29.2885 31.1533V26.9878H19.5996V31.1533Z" fill="#F3D2A2"/>
<path d="M19.591 28.8589C20.9421 30.3855 22.6176 30.7989 24.4398 30.7989C26.261 30.7989 27.9354 30.3844 29.2876 28.8589V24.98H19.5898L19.591 28.8589Z" fill="#E2C196"/>
<path d="M17.1598 17.7067C17.1598 19.3156 16.3442 20.62 15.3387 20.62C14.3331 20.62 13.5176 19.3156 13.5176 17.7067C13.5176 16.0978 14.3331 14.7922 15.3387 14.7922C16.3442 14.7911 17.1598 16.0967 17.1598 17.7067ZM35.3698 17.7067C35.3698 19.3156 34.5554 20.62 33.5487 20.62C32.5431 20.62 31.7276 19.3156 31.7276 17.7067C31.7276 16.0978 32.542 14.7922 33.5487 14.7922C34.5554 14.7911 35.3698 16.0967 35.3698 17.7067Z" fill="#F3D2A2"/>
<path d="M14.9746 18.8433C14.9746 12.6333 19.2146 7.59778 24.4446 7.59778C29.6746 7.59778 33.9135 12.6333 33.9135 18.8433C33.9135 25.0533 29.6746 30.0889 24.4446 30.0889C19.2157 30.0889 14.9746 25.0544 14.9746 18.8433Z" fill="#F3D2A2"/>
<path d="M24.4439 26.4467C21.3839 26.4467 20.4439 25.6634 20.2872 25.5045C20.2179 25.4387 20.1622 25.3598 20.1234 25.2725C20.0845 25.1852 20.0633 25.0911 20.0608 24.9955C20.0558 24.8026 20.1276 24.6156 20.2605 24.4756C20.3935 24.3356 20.5765 24.2542 20.7695 24.2492C20.9624 24.2442 21.1495 24.316 21.2894 24.4489C21.3472 24.49 22.0905 24.99 24.4439 24.99C26.8883 24.99 27.595 24.4511 27.6017 24.4456C27.6688 24.379 27.7486 24.3266 27.8363 24.2913C27.924 24.256 28.0179 24.2387 28.1124 24.2402C28.2069 24.2418 28.3002 24.2622 28.3867 24.3003C28.4732 24.3385 28.5512 24.3935 28.6161 24.4622C28.7507 24.6033 28.8245 24.7916 28.8216 24.9865C28.8187 25.1815 28.7393 25.3675 28.6005 25.5045C28.4439 25.6634 27.5039 26.4467 24.4439 26.4467Z" fill="#C1694F"/>
<path d="M24.4447 3.86664C30.7203 3.86664 34.6425 8.49775 34.6425 12.3566C34.6425 16.2155 33.858 17.76 33.0736 16.2155L31.5047 13.1289C31.5047 13.1289 26.7992 13.1289 25.2303 11.5844C25.2303 11.5844 27.5836 16.2155 22.8769 11.5844C22.8769 11.5844 23.6614 14.6722 18.9547 10.8133C18.9547 10.8133 16.6014 12.3566 15.8169 16.2155C15.5992 17.2866 14.248 16.2155 14.248 12.3566C14.2469 8.49775 17.3847 3.86664 24.4447 3.86664Z" fill="#FB8727"/>
<path d="M19.9998 18.8889C19.3887 18.8889 18.8887 18.3889 18.8887 17.7778V16.6667C18.8887 16.0555 19.3887 15.5555 19.9998 15.5555C20.6109 15.5555 21.1109 16.0555 21.1109 16.6667V17.7778C21.1109 18.3889 20.6109 18.8889 19.9998 18.8889ZM28.8887 18.8889C28.2776 18.8889 27.7776 18.3889 27.7776 17.7778V16.6667C27.7776 16.0555 28.2776 15.5555 28.8887 15.5555C29.4998 15.5555 29.9998 16.0555 29.9998 16.6667V17.7778C29.9998 18.3889 29.4998 18.8889 28.8887 18.8889Z" fill="#662113"/>
<path d="M25.2773 21.9445H23.6107C23.1518 21.9445 22.7773 21.5701 22.7773 21.1112C22.7773 20.6523 23.1518 20.2778 23.6107 20.2778H25.2773C25.7362 20.2778 26.1107 20.6523 26.1107 21.1112C26.1107 21.5701 25.7362 21.9445 25.2773 21.9445Z" fill="#C1694F"/>
<path d="M14.4453 31.1111H17.7786V40H14.4453V31.1111ZM31.112 31.1111H34.4453V40H31.112V31.1111Z" fill="#007180"/>
<path d="M33.334 34.4445H15.5562L14.584 40H34.4451L33.334 34.4445Z" fill="#007180"/>
<path d="M34.5059 10.5555C34.5059 12.0222 29.9592 10.5555 24.5059 10.5555C19.0514 10.5555 14.5059 12.0222 14.5059 10.5555C14.5059 6.61442 15.617 1.11108 24.5059 1.11108C32.2836 1.11108 34.5059 6.61442 34.5059 10.5555Z" fill="#007180"/>
<path d="M14.5676 10.5555C14.5676 10.5555 14.012 13.8889 16.2343 13.8889C17.3454 13.8889 19.012 11.6667 24.5676 11.6667C30.1231 11.6667 31.7898 13.8889 32.9009 13.8889C35.1231 13.8889 34.5676 10.5555 34.5676 10.5555C34.5676 10.5555 32.9009 11.1111 24.5676 11.1111C16.2343 11.1111 14.5676 10.5555 14.5676 10.5555Z" fill="#007180"/>
<path d="M14.507 10C14.507 10 13.9515 13.3333 16.1737 13.3333C17.2848 13.3333 18.9515 11.1111 24.507 11.1111C30.0626 11.1111 31.7293 13.3333 32.8404 13.3333C35.0626 13.3333 34.507 10 34.507 10C34.507 10 32.8404 10.5556 24.507 10.5556C16.1737 10.5556 14.507 10 14.507 10Z" fill="#00AAC0"/>
<path d="M22.8398 1.66667C22.8398 1.66667 22.8398 0 24.5065 0C26.1732 0 26.1732 1.66667 26.1732 1.66667H22.8398Z" fill="#007180"/>
<path d="M30.834 38.8889C32.2147 38.8889 33.334 38.267 33.334 37.5C33.334 36.7329 32.2147 36.1111 30.834 36.1111C29.4533 36.1111 28.334 36.7329 28.334 37.5C28.334 38.267 29.4533 38.8889 30.834 38.8889Z" fill="#FB8727"/>
<path d="M7.76667 21.6455L7.78 26.5444C7.78 27.1588 6.66222 27.6588 5.28111 27.6611C3.90111 27.6644 2.78111 27.1688 2.78 26.5555L2.76889 21.6577C1.12445 22.5544 -0.00221894 24.2788 3.28142e-06 26.2844C0.00353554 27.6842 0.562752 29.0252 1.55472 30.0128C2.5467 31.0004 3.89024 31.5537 5.29 31.5511C6.68996 31.5475 8.03121 30.9882 9.01884 29.9959C10.0065 29.0037 10.5596 27.6599 10.5567 26.26C10.5511 24.2555 9.41667 22.5355 7.76667 21.6455Z" fill="#66757F"/>
<path d="M3.61133 30.4399H6.94466V39.9999H3.61133V30.4399Z" fill="#66757F"/>
</g>
<defs>
<clipPath id="clip0_30_417">
<rect width="40" height="40" fill="white"/>
</clipPath>
</defs>
</svg>
