<svg width="40" height="40" viewBox="0 0 40 40" fill="none" xmlns="http://www.w3.org/2000/svg">
<path d="M27.7103 30.0667C27.7103 30.5413 27.6401 31.0147 27.501 31.4707C27.4836 31.5284 27.4645 31.5858 27.4454 31.6431C27.116 32.592 26.4991 33.4146 25.6805 33.9967C24.8619 34.5788 23.8823 34.8914 22.8779 34.8911H10.0059C8.97046 34.8916 7.96227 34.5595 7.12992 33.9437C6.29757 33.3279 5.68508 32.4609 5.38275 31.4707C5.17756 30.7964 5.12264 30.0853 5.22186 29.3875L7.76408 11.5751C7.89778 10.6457 8.36216 9.79567 9.072 9.18101C9.78185 8.56635 10.6895 8.2283 11.6285 8.22888H16.9401L27.3414 27.1369V27.1378L27.6623 29.388C27.6934 29.6129 27.7103 29.8404 27.7103 30.0667Z" fill="#FFAA64"/>
<path d="M27.6626 29.388L27.5835 28.8386C27.5466 29.0017 27.5005 29.1626 27.4453 29.3204C27.1159 30.2693 26.499 31.092 25.6804 31.6742C24.8618 32.2564 23.8822 32.5691 22.8778 32.5688H13.1973C11.5582 32.5688 10.1933 31.2728 10.1591 29.6373C10.1563 29.554 10.1602 29.4706 10.1706 29.388L12.7129 11.576C12.8466 10.6465 13.3109 9.79652 14.0208 9.18186C14.7306 8.56721 15.6383 8.22915 16.5773 8.22974H11.6289C10.6899 8.22906 9.78212 8.56708 9.07225 9.18176C8.36239 9.79643 7.89803 10.6465 7.76442 11.576L5.22176 29.388C5.09951 30.2486 5.21216 31.1262 5.54779 31.9281C5.88343 32.7299 6.42957 33.4261 7.12842 33.9431C7.96103 34.5596 8.96976 34.8921 10.0058 34.8915H22.8778C23.9131 34.8918 24.9212 34.5596 25.7535 33.9439C26.5858 33.3281 27.1983 32.4612 27.5009 31.4711C27.7062 30.7968 27.7614 30.0858 27.6626 29.388Z" fill="#FB8727"/>
<path d="M27.7117 30.0667C27.7117 30.5413 27.6415 31.0147 27.5024 31.4707C27.485 31.5284 26.157 33.6102 26.157 33.6102C27.7117 30.0662 22.6308 22.7675 22.6308 22.7675C22.5888 22.6906 22.518 22.6335 22.434 22.6086C22.35 22.5837 22.2595 22.593 22.1824 22.6347C22.1051 22.6763 22.0144 22.6857 21.9302 22.6606C21.8461 22.6355 21.7753 22.5781 21.7335 22.5009L20.4588 20.1511C20.3618 19.9745 20.2251 19.8227 20.0596 19.7078C19.894 19.5929 19.704 19.518 19.5046 19.4889C17.3601 19.1613 15.3886 17.8724 14.2757 15.8213C12.9224 13.3275 13.2046 10.3862 14.7597 8.22888H16.941L27.3428 27.1364V27.1373L27.6641 29.3875C27.6948 29.6129 27.7117 29.8404 27.7117 30.0667Z" fill="#FB8727"/>
<path d="M36.6922 31.1973L34.4571 34.8906L31.1665 34.1835L24.7442 22.3502L24.1625 22.6644L23.334 21.1369L22.4082 19.4302C21.2733 19.3586 20.1713 19.0198 19.1922 18.4413C18.4827 18.0227 17.8514 17.4838 17.3265 16.8489C17.0297 16.4902 16.7686 16.1035 16.5469 15.6942C14.6598 12.2169 15.9549 7.87109 19.4385 5.98843C20.8471 5.22434 22.4715 4.95516 24.0513 5.22398C25.3895 5.45067 26.6366 6.0504 27.6491 6.95421C28.2607 7.50239 28.7733 8.1519 29.1642 8.87421C29.386 9.28309 29.5642 9.70443 29.6998 10.1324C29.9948 11.0702 30.0936 12.0587 29.9898 13.0363C29.886 14.0139 29.582 14.9597 29.0967 15.8147L30.8513 19.0489L30.2696 19.3631L32.0807 22.7004L32.2527 25.3551L34.3856 26.9489L34.5585 29.6026L36.6922 31.1973Z" fill="#FFCA6C"/>
<path d="M26.3666 6.03951L19.1919 18.4413C18.4825 18.0225 17.8512 17.4837 17.3262 16.8488L24.0511 5.22351C24.8617 5.36084 25.6466 5.63684 26.3666 6.03951ZM29.6995 10.1324L23.3337 21.1368L22.4079 19.4302C21.8028 19.3919 21.2049 19.2775 20.6284 19.0897L27.6488 6.95418C28.2605 7.50236 28.773 8.15187 29.1639 8.87418C29.3857 9.28351 29.5644 9.7044 29.6995 10.1324Z" fill="#007180"/>
<path d="M19.75 10.0995C19.75 10.6079 19.9523 11.0955 20.3125 11.455C20.6726 11.8144 21.1611 12.0164 21.6704 12.0164C22.1798 12.0164 22.6683 11.8144 23.0284 11.455C23.3886 11.0955 23.5909 10.6079 23.5909 10.0995C23.5909 9.59111 23.3886 9.10355 23.0284 8.74406C22.6683 8.38457 22.1798 8.18262 21.6704 8.18262C21.1611 8.18262 20.6726 8.38457 20.3125 8.74406C19.9523 9.10355 19.75 9.59111 19.75 10.0995Z" fill="#007180"/>
<path d="M19.907 34.2929H10.0066C9.09874 34.2953 8.21452 34.0037 7.48614 33.4618C6.75593 32.9243 6.2194 32.1648 5.9568 31.297C5.77775 30.7063 5.72967 30.0837 5.81592 29.4725L6.12081 27.3361C6.13497 27.1827 6.08958 27.0297 5.99406 26.9088C5.89853 26.788 5.76019 26.7085 5.60767 26.6869C5.45515 26.6652 5.30015 26.7031 5.17477 26.7926C5.04938 26.882 4.96323 27.0163 4.93414 27.1676L4.62925 29.3045C4.51911 30.0888 4.58084 30.8877 4.81014 31.6458C5.14697 32.7594 5.83539 33.734 6.77236 34.4236C7.70727 35.1184 8.84178 35.4923 10.0066 35.4894H19.907C19.9875 35.4925 20.0678 35.4793 20.1431 35.4507C20.2184 35.422 20.2871 35.3784 20.3452 35.3226C20.4032 35.2667 20.4494 35.1997 20.481 35.1256C20.5125 35.0515 20.5288 34.9717 20.5288 34.8912C20.5288 34.8106 20.5125 34.7309 20.481 34.6568C20.4494 34.5826 20.4032 34.5156 20.3452 34.4598C20.2871 34.4039 20.2184 34.3603 20.1431 34.3317C20.0678 34.303 19.9875 34.2898 19.907 34.2929Z" fill="black"/>
<path d="M37.0513 30.7182L35.1388 29.2889L34.9846 26.9094C34.979 26.8231 34.9548 26.7391 34.9136 26.6632C34.8724 26.5872 34.8152 26.5211 34.7459 26.4694L32.833 25.0405L32.6788 22.6609C32.6731 22.5746 32.649 22.4905 32.6082 22.4142L31.0819 19.6036L31.1366 19.5738C31.4277 19.4165 31.5357 19.0538 31.3784 18.7631L29.777 15.8125C30.306 14.7759 30.5963 13.6341 30.6268 12.4707C30.6288 12.3921 30.6153 12.314 30.5871 12.2407C30.5589 12.1673 30.5165 12.1003 30.4623 12.0434C30.4082 11.9864 30.3433 11.9408 30.2715 11.9089C30.1997 11.8771 30.1223 11.8597 30.0437 11.8578C29.965 11.8554 29.8866 11.8686 29.813 11.8966C29.7394 11.9246 29.6721 11.9669 29.615 12.0211C29.5579 12.0753 29.512 12.1402 29.4801 12.2122C29.4482 12.2842 29.4308 12.3618 29.429 12.4405C29.4001 13.5212 29.1068 14.5784 28.5748 15.5196C28.5248 15.6077 28.4981 15.7071 28.4971 15.8084C28.4962 15.9098 28.5211 16.0097 28.5695 16.0987L30.0393 18.8067L27.2339 20.3236L26.121 18.2725C26.0451 18.1329 25.9169 18.0292 25.7646 17.9841C25.6123 17.9389 25.4483 17.956 25.3086 18.0316C25.2395 18.0689 25.1784 18.1195 25.1289 18.1805C25.0794 18.2415 25.0423 18.3116 25.0199 18.3869C24.9975 18.4622 24.9901 18.5412 24.9983 18.6193C25.0064 18.6974 25.0298 18.7732 25.0673 18.8422L26.1801 20.8934L24.4602 21.8231H24.4593L24.4588 21.8236L24.405 21.8534L22.9348 19.1454C22.8863 19.0562 22.816 18.9808 22.7304 18.9262C22.6448 18.8716 22.5468 18.8397 22.4455 18.8334C20.1668 18.6889 18.1584 17.4089 17.0739 15.4094C16.6605 14.6527 16.4016 13.8214 16.3122 12.9639C16.2228 12.1063 16.3046 11.2395 16.553 10.4138C17.0163 8.84412 18.0533 7.50626 19.4579 6.66625C19.6771 7.15976 19.8742 7.66278 20.0486 8.1738C19.6704 8.48979 19.3941 8.91053 19.2544 9.38314C19.1591 9.69959 19.1277 10.0318 19.162 10.3605C19.1962 10.6892 19.2955 11.0078 19.4539 11.2978C19.7731 11.8847 20.312 12.3211 20.9525 12.5112C21.593 12.7012 22.2827 12.6294 22.8704 12.3116C23.4571 11.9941 23.8938 11.4566 24.0842 10.8172C24.2747 10.1779 24.2033 9.48903 23.8859 8.90225C23.3397 7.89469 22.1984 7.41025 21.1295 7.64403C20.9491 7.13739 20.7493 6.6379 20.5304 6.14669C21.875 5.63519 23.3509 5.58176 24.729 5.99469C25.5573 6.23781 26.3291 6.64269 26.9999 7.18593C27.6706 7.72916 28.2271 8.39997 28.637 9.15958C28.8369 9.5277 29.0012 9.91404 29.1277 10.3134C29.1759 10.4647 29.2821 10.5907 29.4231 10.6639C29.564 10.737 29.7282 10.7513 29.8797 10.7036C29.9546 10.68 30.0242 10.6419 30.0844 10.5914C30.1446 10.541 30.1943 10.4791 30.2305 10.4094C30.2668 10.3398 30.289 10.2636 30.2958 10.1854C30.3027 10.1071 30.294 10.0283 30.2704 9.95336C30.1207 9.48164 29.9264 9.02522 29.6904 8.59025C29.2057 7.69222 28.5479 6.89916 27.7549 6.25691C26.9619 5.61466 26.0495 5.13595 25.0704 4.84847C23.4054 4.34938 21.6207 4.42594 20.0046 5.0658C19.9262 4.91686 19.845 4.76942 19.761 4.62358C18.7722 2.89914 17.1477 0.960914 15.0201 1.5218C13.929 1.80936 13.4841 2.47203 13.3033 2.97691C12.7833 4.4298 13.7513 6.44669 14.4562 7.63247H11.6286C9.40237 7.63247 7.48593 9.29158 7.17082 11.4925L5.1877 25.396C5.1755 25.481 5.18176 25.5676 5.20607 25.65C5.23037 25.7324 5.27215 25.8085 5.32855 25.8733C5.38494 25.938 5.45464 25.9898 5.53287 26.0252C5.61111 26.0606 5.69606 26.0787 5.78193 26.0782C6.07526 26.0782 6.3317 25.8631 6.37437 25.5649L8.35837 11.6609C8.58948 10.0458 9.99615 8.82803 11.6299 8.82803H15.897C15.6978 9.2284 15.5331 9.64502 15.4046 10.0734C15.1109 11.0495 15.0141 12.0744 15.1198 13.0883C15.2256 14.1022 15.5318 15.085 16.0206 15.9796C17.2499 18.2449 19.4815 19.7289 22.0353 19.9987L23.6366 22.9489C23.6741 23.0181 23.7249 23.0792 23.786 23.1287C23.8472 23.1783 23.9175 23.2153 23.9929 23.2377C24.0684 23.26 24.1475 23.2673 24.2257 23.2591C24.304 23.2509 24.3799 23.2273 24.449 23.1898L24.5037 23.1605L26.765 27.3267L27.0708 29.4711C27.1579 30.0827 27.11 30.7059 26.9304 31.2969C26.6687 32.1664 26.1329 32.9279 25.403 33.4679C24.6731 34.0079 23.7881 34.2975 22.8802 34.2934H21.9064C21.8255 34.2895 21.7446 34.3022 21.6687 34.3305C21.5929 34.3588 21.5235 34.4023 21.4649 34.4582C21.4063 34.5141 21.3596 34.5813 21.3278 34.6558C21.2959 34.7302 21.2795 34.8104 21.2795 34.8914C21.2795 34.9724 21.2959 35.0525 21.3278 35.127C21.3596 35.2014 21.4063 35.2686 21.4649 35.3246C21.5235 35.3805 21.5929 35.4239 21.6687 35.4522C21.7446 35.4805 21.8255 35.4932 21.9064 35.4894H22.8802C25.2882 35.4894 27.3762 33.9445 28.077 31.6454C28.2221 31.1678 28.3003 30.6724 28.3095 30.1734L30.6406 34.4689C30.7241 34.6227 30.8704 34.732 31.041 34.7685L34.3317 35.4756C34.4536 35.5017 34.5806 35.4892 34.695 35.4398C34.8095 35.3904 34.9057 35.3066 34.9704 35.2L37.2055 31.5062C37.2822 31.3792 37.3089 31.2282 37.2804 31.0825C37.2519 30.9369 37.1702 30.807 37.0513 30.7182ZM22.8326 9.47158C22.9989 9.77934 23.0362 10.1405 22.9364 10.4758C22.8365 10.811 22.6077 11.0929 22.3002 11.2596C21.9919 11.4258 21.6304 11.4633 21.2946 11.3636C20.9589 11.264 20.6763 11.0355 20.5086 10.728C20.4253 10.576 20.3732 10.409 20.3552 10.2366C20.3372 10.0642 20.3537 9.88996 20.4037 9.72403C20.4529 9.55765 20.5345 9.40268 20.644 9.2681C20.7535 9.13353 20.8886 9.02201 21.0415 8.94003C21.3496 8.77354 21.7111 8.73601 22.0469 8.83565C22.3826 8.93529 22.6652 9.16397 22.8326 9.47158ZM15.873 7.63158C15.0606 6.42847 14.0637 4.40936 14.4335 3.3778C14.5126 3.15736 14.6913 2.84491 15.3277 2.67691C16.7424 2.30447 18.0215 3.87869 18.9339 5.58758C18.0373 6.10742 17.2545 6.80241 16.6322 7.63114L15.873 7.63158ZM34.4855 33.6871L31.1681 27.5747C31.0923 27.4351 30.9641 27.3313 30.8118 27.286C30.6595 27.2408 30.4955 27.2578 30.3557 27.3334C30.2866 27.3707 30.2255 27.4213 30.176 27.4823C30.1265 27.5433 30.0894 27.6134 30.067 27.6887C30.0446 27.764 30.0373 27.8429 30.0454 27.9211C30.0535 27.9992 30.0769 28.075 30.1144 28.144L33.3095 34.0325L31.5619 33.6569L25.557 22.5911L26.7513 21.9458L29.1024 26.2791C29.1783 26.4188 29.3066 26.5226 29.459 26.5677C29.6114 26.6129 29.7755 26.5957 29.9153 26.52C30.2059 26.3627 30.3144 26 30.1566 25.7094L27.805 21.3765L30.0295 20.1742L31.4926 22.8698L31.6557 25.3934C31.6668 25.568 31.7548 25.7285 31.8944 25.8334L33.8073 27.2622L33.9615 29.6418C33.9726 29.8165 34.0606 29.9774 34.2001 30.0818L35.8997 31.3516L34.4855 33.6871Z" fill="black"/>
</svg>
