<svg width="40" height="40" viewBox="0 0 40 40" fill="none" xmlns="http://www.w3.org/2000/svg">
<g id="house 2" clip-path="url(#clip0_31_329)">
<path id="Vector" d="M33.957 39.233H6.04297V13.7729L20 2.67889L34.0079 13.813L33.957 39.233Z" fill="#FB8727"/>
<path id="Vector_2" d="M22.6868 4.81451L20 2.67889L6.04297 13.7729V39.233H8.11992V15.885L22.6868 4.81451Z" fill="#A75714"/>
<path id="Vector_3" d="M37.8399 17.6158L20.0004 3.59915L2.16093 17.6158L0.621094 15.6561L19.2304 1.03447C19.6823 0.679549 20.3184 0.67947 20.7703 1.03447L39.3796 15.6561L37.8399 17.6158Z" fill="#B2B2B2"/>
<path id="Vector_4" d="M23.324 27.2703H16.6777V39.2334H23.324V27.2703Z" fill="#CCCCCC"/>
<path id="Vector_5" d="M18.6716 27.2703H16.6777V39.2334H18.6716V27.2703Z" fill="#B2B2B2"/>
<path id="Vector_6" d="M4.04914 39.2334C5.51739 39.2334 6.70765 38.0431 6.70765 36.5749C6.70765 35.1066 5.51739 33.9164 4.04914 33.9164C2.58088 33.9164 1.39062 35.1066 1.39062 36.5749C1.39062 38.0431 2.58088 39.2334 4.04914 39.2334Z" fill="#C4DF64"/>
<path id="Vector_7" d="M5.04609 38.2361C3.57789 38.2361 2.38758 37.0459 2.38758 35.5776C2.38758 35.0995 2.51437 34.6513 2.73523 34.2637C1.93234 34.7212 1.39062 35.5843 1.39062 36.5744C1.39062 38.0426 2.58086 39.233 4.04914 39.233C5.03937 39.233 5.90241 38.6912 6.35991 37.8884C5.97233 38.1094 5.52413 38.2361 5.04609 38.2361Z" fill="#96CA63"/>
<path id="Vector_8" d="M11.3597 39.2334C12.8279 39.2334 14.0182 38.0431 14.0182 36.5749C14.0182 35.1066 12.8279 33.9164 11.3597 33.9164C9.89143 33.9164 8.70117 35.1066 8.70117 36.5749C8.70117 38.0431 9.89143 39.2334 11.3597 39.2334Z" fill="#C4DF64"/>
<path id="Vector_9" d="M12.3566 38.2361C10.8884 38.2361 9.69812 37.0459 9.69812 35.5776C9.69812 35.0995 9.82492 34.6513 10.0458 34.2637C9.24289 34.7212 8.70117 35.5843 8.70117 36.5744C8.70117 38.0426 9.8914 39.233 11.3597 39.233C12.3499 39.233 13.213 38.6912 13.6705 37.8884C13.2829 38.1094 12.8347 38.2361 12.3566 38.2361Z" fill="#96CA63"/>
<path id="Vector_10" d="M28.6409 39.2334C30.1092 39.2334 31.2994 38.0431 31.2994 36.5749C31.2994 35.1066 30.1092 33.9164 28.6409 33.9164C27.1727 33.9164 25.9824 35.1066 25.9824 36.5749C25.9824 38.0431 27.1727 39.2334 28.6409 39.2334Z" fill="#C4DF64"/>
<path id="Vector_11" d="M29.6379 38.2361C28.1697 38.2361 26.9794 37.0459 26.9794 35.5776C26.9794 35.0995 27.1062 34.6513 27.327 34.2637C26.5241 34.7212 25.9824 35.5843 25.9824 36.5744C25.9824 38.0426 27.1727 39.233 28.6409 39.233C29.6312 39.233 30.4942 38.6912 30.9517 37.8884C30.5641 38.1094 30.1159 38.2361 29.6379 38.2361Z" fill="#96CA63"/>
<path id="Vector_12" d="M35.9515 39.2334C37.4197 39.2334 38.61 38.0431 38.61 36.5749C38.61 35.1066 37.4197 33.9164 35.9515 33.9164C34.4832 33.9164 33.293 35.1066 33.293 36.5749C33.293 38.0431 34.4832 39.2334 35.9515 39.2334Z" fill="#C4DF64"/>
<path id="Vector_13" d="M36.9484 38.2361C35.4802 38.2361 34.2899 37.0459 34.2899 35.5776C34.2899 35.0995 34.4167 34.6513 34.6376 34.2637C33.8347 34.7212 33.293 35.5843 33.293 36.5744C33.293 38.0426 34.4832 39.233 35.9515 39.233C36.9417 39.233 37.8048 38.6912 38.2623 37.8884C37.8746 38.1094 37.4264 38.2361 36.9484 38.2361Z" fill="#96CA63"/>
<g id="Group">
<path id="Vector_14" d="M16.6766 17.3013H8.70117V23.9475H16.6766V17.3013Z" fill="#41C7FF"/>
<path id="Vector_15" d="M31.2977 17.3009H23.3223V23.9471H31.2977V17.3009Z" fill="#41C7FF"/>
<path id="Vector_16" d="M29.5254 17.3005H26.6454L23.3223 20.6237V23.5036L29.5254 17.3005Z" fill="#41C7FF"/>
<path id="Vector_17" d="M24.9844 23.9467H27.7536L31.2983 20.4021V17.6328L24.9844 23.9467Z" fill="#41C7FF"/>
</g>
<g id="Group_2">
<path id="Vector_18" d="M29.5254 17.3005L23.3223 23.5037V23.9467H24.9838L31.2977 17.6328V17.3005H29.5254Z" fill="#007180"/>
<path id="Vector_19" d="M23.3223 17.3005V20.6237L26.6454 17.3005H23.3223Z" fill="#007180"/>
<path id="Vector_20" d="M27.7539 23.9467H31.2986V20.4021L27.7539 23.9467Z" fill="#007180"/>
<path id="Vector_21" d="M14.9044 17.3005L8.70117 23.5037V23.9467H10.3627L16.6766 17.6328V17.3005H14.9044Z" fill="#007180"/>
<path id="Vector_22" d="M8.70117 17.3005V20.6237L12.0243 17.3005H8.70117Z" fill="#007180"/>
<path id="Vector_23" d="M13.1328 23.9467H16.6775V20.4021L13.1328 23.9467Z" fill="#007180"/>
</g>
<path id="Vector_24" d="M22.6587 8.66089H17.3418V13.9778H22.6587V8.66089Z" fill="#41C7FF"/>
<path id="Vector_25" d="M8.70117 16.6775C8.35703 16.6775 8.07812 16.9565 8.07812 17.3005V23.9468C8.07812 24.2909 8.35711 24.5698 8.70117 24.5698H16.6766C17.0208 24.5698 17.2997 24.2908 17.2997 23.9468V17.3005C17.2997 16.9564 17.0207 16.6775 16.6766 16.6775H8.70117ZM9.32429 17.9237H12.0659V23.3237H9.32429V17.9237ZM16.0536 23.3237H13.312V17.9237H16.0536V23.3237Z" fill="black"/>
<path id="Vector_26" d="M22.6992 17.3005V23.9468C22.6992 24.2909 22.9781 24.5698 23.3223 24.5698H31.2977C31.6419 24.5698 31.9208 24.2908 31.9208 23.9468V17.3005C31.9208 16.9564 31.6419 16.6775 31.2977 16.6775H23.3223C22.9781 16.6774 22.6992 16.9564 22.6992 17.3005ZM30.6747 23.3236H27.9331V17.9236H30.6747V23.3236ZM23.9454 17.9236H26.6869V23.3236H23.9454V17.9236Z" fill="black"/>
<path id="Vector_27" d="M22.6587 8.03735H17.3418C16.9977 8.03735 16.7188 8.31634 16.7188 8.6604V13.9773C16.7188 14.3215 16.9977 14.6004 17.3418 14.6004H22.6587C23.003 14.6004 23.2818 14.3214 23.2818 13.9773V8.6604C23.2818 8.31634 23.0028 8.03735 22.6587 8.03735ZM22.0356 10.6959H20.6233V9.28352H22.0356V10.6959ZM19.3772 9.28352V10.6959H17.9648V9.28352H19.3772ZM17.9648 11.942H19.3772V13.3544H17.9648V11.942ZM20.6234 13.3544V11.942H22.0357V13.3544H20.6234Z" fill="black"/>
<path id="Vector_28" d="M18.6699 31.9637C18.3258 31.9637 18.0469 32.2427 18.0469 32.5868V33.2514C18.0469 33.5955 18.3259 33.8744 18.6699 33.8744C19.0141 33.8744 19.293 33.5955 19.293 33.2514V32.5868C19.293 32.2427 19.014 31.9637 18.6699 31.9637Z" fill="black"/>
<path id="Vector_29" d="M39.2741 38.61H38.5221C38.9663 38.0502 39.2325 37.343 39.2325 36.5746C39.2325 34.7652 37.7604 33.2931 35.951 33.2931C35.4618 33.2931 34.9977 33.4015 34.5802 33.5942V15.8474L37.4545 18.1058C37.7217 18.3157 38.1198 18.2678 38.3295 18.0008L39.8693 16.0411C40.079 15.7741 40.0309 15.3757 39.7643 15.1661L33.3987 10.1645C33.1282 9.95193 32.7364 9.99888 32.5238 10.2695C32.3112 10.54 32.3582 10.9318 32.6288 11.1444L38.5045 15.7611L37.7345 16.741L20.385 3.10921C20.159 2.93171 19.8411 2.93171 19.615 3.10921L2.26555 16.741L1.49555 15.7611L19.6149 1.52437C19.8416 1.34624 20.1584 1.34624 20.385 1.52437L30.2489 9.27458C30.5192 9.48708 30.9111 9.44013 31.1238 9.16959C31.3364 8.89904 31.2893 8.50732 31.0188 8.29466L21.1549 0.544523C20.4748 0.0103054 19.5252 0.0103054 18.8451 0.544523L0.235713 15.1661C-0.0309275 15.3757 -0.0789742 15.7742 0.130713 16.0411L1.67055 18.0008C1.88313 18.2714 2.27485 18.3183 2.54547 18.1058L5.41984 15.8474V28.5992C5.41984 28.9433 5.69883 29.2222 6.04289 29.2222C6.38695 29.2222 6.66593 28.9432 6.66593 28.5992V14.8682L20 4.39147L33.3339 14.8682V34.5531C33.3339 34.5671 33.3351 34.5809 33.336 34.5947C32.918 35.1454 32.6693 35.8314 32.6693 36.5746C32.6693 37.343 32.9356 38.0502 33.3797 38.61H31.2113C31.6554 38.0502 31.9217 37.343 31.9217 36.5746C31.9217 34.7652 30.4496 33.2931 28.6401 33.2931C26.8307 33.2931 25.3586 34.7652 25.3586 36.5746C25.3586 37.343 25.6248 38.0502 26.0689 38.61H23.9462V27.2699C23.9462 26.9257 23.6673 26.6468 23.3232 26.6468H16.6769C16.3328 26.6468 16.0539 26.9258 16.0539 27.2699V38.6099H13.9312C14.3753 38.0501 14.6415 37.343 14.6415 36.5745C14.6415 34.7651 13.1694 33.293 11.36 33.293C9.55054 33.293 8.07843 34.7651 8.07843 36.5745C8.07843 37.343 8.34468 38.0501 8.78882 38.6099H6.62031C7.06445 38.0501 7.3307 37.343 7.3307 36.5745C7.3307 35.8284 7.07992 35.1398 6.65875 34.5881C6.66304 34.5584 6.66609 34.5284 6.66609 34.4976V31.9222C6.66609 31.5781 6.38711 31.2992 6.04305 31.2992C5.69898 31.2992 5.42 31.5781 5.42 31.9222V33.5942C5.0025 33.4014 4.53836 33.293 4.04922 33.293C2.23977 33.293 0.767665 34.7651 0.767665 36.5745C0.767665 37.343 1.03391 38.0501 1.47805 38.6099H0.726102C0.381962 38.6099 0.103057 38.8889 0.103057 39.233C0.103057 39.5771 0.382041 39.856 0.726102 39.856H39.2741C39.6183 39.856 39.8971 39.577 39.8971 39.233C39.8971 38.889 39.6181 38.61 39.2741 38.61ZM33.9156 36.5745C33.9156 35.4523 34.8286 34.5391 35.951 34.5391C37.0733 34.5391 37.9863 35.4523 37.9863 36.5745C37.9863 37.6968 37.0733 38.6099 35.951 38.6099C34.8285 38.61 33.9156 37.6969 33.9156 36.5745ZM26.6047 36.5745C26.6047 35.4523 27.5178 34.5391 28.6401 34.5391C29.7625 34.5391 30.6755 35.4523 30.6755 36.5745C30.6755 37.6968 29.7625 38.6099 28.6401 38.6099C27.5178 38.61 26.6047 37.6969 26.6047 36.5745ZM9.3246 36.5745C9.3246 35.4523 10.2377 34.5391 11.36 34.5391C12.4823 34.5391 13.3954 35.4523 13.3954 36.5745C13.3954 37.6968 12.4823 38.6099 11.36 38.6099C10.2377 38.61 9.3246 37.6969 9.3246 36.5745ZM2.01376 36.5745C2.01376 35.4523 2.92688 34.5391 4.04914 34.5391C5.17141 34.5391 6.08453 35.4523 6.08453 36.5745C6.08453 37.6968 5.17141 38.6099 4.04914 38.6099C2.92688 38.6099 2.01376 37.6969 2.01376 36.5745ZM17.3001 38.61V27.893H22.7001V38.61H17.3001Z" fill="black"/>
</g>
<defs>
<clipPath id="clip0_31_329">
<rect width="40" height="40" fill="white"/>
</clipPath>
</defs>
</svg>
