<svg width="42" height="50" viewBox="0 0 42 50" fill="none" xmlns="http://www.w3.org/2000/svg">
<path d="M9.04555 20.833H5.49993V14.2529C5.49993 14.2529 4.23353 15.6278 3.18427 14.3977C2.31585 13.4931 2.87551 12.5252 3.50995 12.0097C8.30794 8.52026 14.5002 4.10406 19.9723 0.178442C20.3292 -0.0594737 21.2109 -0.0594848 21.5281 0.178433C28.1501 4.93676 38.0991 12.2268 38.0991 12.2268C38.0991 12.2268 39.1339 13.0346 38.2438 14.3253C37.5202 15.3746 36.13 14.6063 35.892 14.2891C35.892 14.2891 35.892 18.8339 35.892 21.8872C38.4695 22.8388 43.4177 28.0742 40.9574 34.9124C38.4971 41.7507 30.8354 41.9629 29.3286 41.7507C27.8217 41.5385 25.906 42.6914 25.3633 44.1748C24.1341 40.4475 26.3764 37.9494 29.3286 37.9494C34.1191 38.3858 38.8979 35.2832 37.3031 29.0149C35.3884 23.9946 29.8869 23.7 27.9322 25.1435C25.9774 26.587 24.1693 28.4722 24.1693 30.7154C24.1693 32.9586 24.1693 50 24.1693 50H20.1894C20.1894 50 20.1894 36.8804 20.1894 30.9325C20.1894 28.0018 22.4688 23.0088 26.9914 21.3083C28.9654 20.5661 32.3463 20.8017 32.3463 20.8017V12.5524C32.3463 12.5524 24.4282 6.94594 21.0577 4.44782C20.8406 4.26691 20.5512 4.26691 20.3341 4.44782C16.012 7.54073 9.04555 12.5524 9.04555 12.5524V20.833Z" fill="#007180"/>
<path fill-rule="evenodd" clip-rule="evenodd" d="M1.04412e-09 21.8052C1.98205e-10 21.4879 0.158611 20.8138 0.951665 20.8138H10.4287C19.8273 20.4101 21.4555 30.1791 16.4263 33.2183C18.959 34.557 19.7807 37.5236 19.0313 40.4184C18.2834 43.3072 15.0876 45.4837 13.2785 45.4476C11.4695 45.4114 0.708571 45.4476 0.651262 45.4476C0.215083 45.4476 -1.43603e-05 45.2032 7.1907e-10 44.6877C1.2156e-05 44.2515 3.73594e-06 28.7439 8.60885e-07 23.4483L3.63348e-07 22.5249V22.5246V22.5243L1.04412e-09 21.8052ZM4.81211 24.6434C4.53454 24.6434 4.26939 25.0205 4.26939 25.2584V30.9027C4.26939 31.1803 4.37592 31.4454 4.81211 31.4454L12.3016 31.4454C15.8836 31.4454 15.9559 24.6109 12.1569 24.6434C8.22372 24.677 5.88004 24.6536 5.08854 24.6457L5.08843 24.6457C4.94638 24.6443 4.85434 24.6434 4.81211 24.6434ZM5.02919 35.0997C4.59301 35.0997 4.26939 35.3976 4.26939 35.7148V40.9973C4.26939 41.5127 4.55336 41.6847 5.02919 41.6847H12.6273C13.1427 41.6847 14.2554 41.1919 14.7619 39.948C14.7619 39.948 15.5579 37.5239 14.4001 36.2213C13.7851 35.353 12.6585 35.0997 12.3016 35.0997H5.02919Z" fill="#FB8727"/>
<rect x="16.5703" y="10.3815" width="3.61812" height="3.61812" rx="1.80906" fill="#FB8727"/>
<rect x="16.5703" y="15.0127" width="3.61812" height="3.61812" rx="1.80906" fill="#FB8727"/>
<rect x="21.2012" y="10.3815" width="3.61812" height="3.61812" rx="1.80906" fill="#FB8727"/>
<rect x="21.2012" y="15.0127" width="3.61812" height="3.61812" rx="1.80906" fill="#FB8727"/>
</svg>
