<svg width="40" height="40" viewBox="0 0 40 40" fill="none" xmlns="http://www.w3.org/2000/svg">
<path d="M15.052 18.644H15.1198L11.8656 34.2372L8.61133 18.644H8.74695" fill="#7C7C7C"/>
<path d="M4.40764 36.2711L0.339844 35.5932V22.0339C0.339844 19.322 3.7297 17.9661 8.47543 17.9661L8.61105 18.644L11.8653 34.2372L15.1195 18.644L15.2551 17.9661C18.645 17.9661 21.3568 18.644 22.6449 20.0677C22.8483 20.2711 22.9161 20.4745 23.0517 20.6779C23.0517 20.6779 23.3907 21.2881 23.3907 23.661C22.9839 23.5254 22.5094 23.4576 22.0348 23.4576H20.6788C18.6449 23.4576 17.289 24.8135 17.289 26.8474V27.5254C17.289 30.2372 18.6449 32.2711 21.3568 32.2711C22.0347 32.2711 22.6449 32.1355 23.1873 31.8643L23.3906 32.2711V34.305L21.3568 35.661L19.3229 34.305C15.933 34.305 15.2551 35.7287 15.2551 37.0168H4.40764V36.2711ZM11.8652 19.322C12.272 19.322 12.5431 19.0509 12.5431 18.6441C12.5431 18.2373 12.272 17.9661 11.8652 17.9661C11.4584 17.9661 11.1873 18.2373 11.1873 18.6441C11.1873 19.0509 11.4584 19.322 11.8652 19.322Z" fill="#007180"/>
<path d="M32.8821 10.5085V13.2203C32.8821 15.2542 31.5261 17.9661 29.4922 17.9661C27.4583 17.9661 26.1024 15.2542 26.1024 13.2203V10.5085C26.1024 10.5085 28.1363 10.5085 28.8142 8.47459C29.4922 10.5085 32.8821 10.5085 32.8821 10.5085ZM17.2888 7.79657V9.15253C17.2888 9.49154 17.0177 9.83047 16.6109 9.83047C16.6109 11.1864 15.933 12.5423 15.933 12.5423C15.2549 13.8983 14.5091 15.2542 11.8651 15.2542C9.22101 15.2542 8.47522 13.8983 7.79728 12.5424C7.79728 12.5424 7.11935 11.1864 7.11935 9.83055C6.78034 9.83055 6.44141 9.49154 6.44141 9.15261V7.79657C6.44141 7.45757 6.78042 7.11864 7.11935 7.11864V6.4407C7.11935 4.54242 8.61084 3.05084 10.5092 3.05084H13.221C15.1193 3.05084 16.6109 4.54234 16.6109 6.4407V7.11864C17.0177 7.11864 17.2888 7.45764 17.2888 7.79657ZM25.4244 26.7797V27.4576C25.4244 29.4915 24.6786 31.1186 23.1871 31.7966C22.6447 32.0677 22.0346 32.2033 21.3566 32.2033C18.6448 32.2033 17.2888 30.1694 17.2888 27.4576V26.7797C17.2888 24.7458 18.6448 23.3898 20.6787 23.3898H22.0346C22.5092 23.3898 22.9838 23.4576 23.3906 23.5932C24.6786 24.0677 25.4244 25.2203 25.4244 26.7797Z" fill="#FFCA94"/>
<path d="M27.4592 36.9491H15.2559C15.2559 35.661 15.9338 34.2373 19.3237 34.2373L21.3575 35.5931L23.3914 34.2372C26.7813 34.2372 27.4592 35.6609 27.4592 36.9491Z" fill="#FFC400"/>
<path d="M32.8827 13.2204V10.5086C32.8827 10.5086 29.4928 10.5086 28.8149 8.47465C28.137 10.5086 26.1031 10.5086 26.1031 10.5086V13.2204C26.1031 15.2543 27.459 17.9661 29.4929 17.9661C31.5268 17.9661 32.8827 15.2543 32.8827 13.2204ZM34.9166 8.47465L35.9335 19.7289V19.7966C35.0522 19.5255 34.0353 19.3221 32.8827 19.3221C32.8827 19.3221 32.8827 23.3899 29.4928 23.3899C26.103 23.3899 26.103 19.3221 26.103 19.3221C26.0352 19.3221 24.3403 19.3221 22.9844 19.8645V19.7967L24.0691 8.47465C24.2725 6.44076 26.7809 4.40686 28.8148 4.40686H30.1708C32.2047 4.40686 34.781 6.44076 34.9166 8.47465Z" fill="#70695D"/>
<path d="M29.492 23.3898C32.8819 23.3898 32.8819 19.322 32.8819 19.322C34.0344 19.322 35.0514 19.4576 35.9327 19.7966C38.509 20.6779 39.6615 22.7118 39.6615 24.7457V35.5932L35.5937 36.2711V36.9491H27.4581C27.4581 35.6609 26.7802 34.2372 23.3903 34.2372V32.2033L23.1869 31.7965C24.6784 31.1186 25.4242 29.4237 25.4242 27.4576V26.7796C25.4242 25.2203 24.6784 24.0678 23.3903 23.5932C23.3903 21.2203 23.0513 20.6101 23.0513 20.6101C22.9157 20.4067 22.7802 20.2033 22.6445 19.9999L22.7123 19.9322C22.7801 19.8644 22.9157 19.8644 22.9835 19.7966C24.2716 19.2542 25.9665 19.2542 26.1021 19.2542C26.1022 19.322 26.1022 23.3898 29.492 23.3898Z" fill="#FB8727"/>
<path d="M35.5932 37.2881C35.3898 37.2881 35.2542 37.1525 35.2542 36.9491L35.322 26.1016C35.322 25.8983 35.4576 25.7626 35.661 25.7626C35.8644 25.7626 36 25.8983 36 26.1016L35.9322 36.9491C35.9322 37.1525 35.7966 37.2881 35.5932 37.2881ZM27.4576 37.2881C27.2542 37.2881 27.1186 37.1525 27.1186 36.9491C27.1186 36.3389 27.1186 34.5762 23.5254 34.5762L21.5592 35.8643C21.4236 35.932 21.2881 35.932 21.1524 35.8643L19.1864 34.5762C15.5932 34.5762 15.5932 36.339 15.5932 36.9491C15.5932 37.1525 15.4575 37.2882 15.2541 37.2882C15.0508 37.2882 14.9151 37.1525 14.9151 36.9491C14.9151 34.9152 16.4066 33.8983 19.3219 33.8983C19.3897 33.8983 19.4576 33.8983 19.5253 33.9661L21.3558 35.1864L23.1863 33.9661C23.2541 33.8983 23.322 33.8983 23.3897 33.8983C26.305 33.8983 27.7965 34.9152 27.7965 36.9491C27.7966 37.1525 27.661 37.2881 27.4576 37.2881ZM4.4068 37.2881C4.20341 37.2881 4.06779 37.1525 4.06779 36.9491V26.1016C4.06779 25.8983 4.20341 25.7626 4.4068 25.7626C4.61019 25.7626 4.74581 25.8983 4.74581 26.1016V36.9491C4.74573 37.1525 4.61019 37.2881 4.4068 37.2881ZM39.661 35.9322C39.4576 35.9322 39.322 35.7966 39.322 35.5932V24.7458C39.322 23.4577 38.8474 22.3051 37.966 21.4238C36.8813 20.339 35.2542 19.7288 33.2203 19.7288C33.0847 21.2203 32.339 23.5932 29.8304 23.7966V27.5254C29.8304 27.7288 29.6948 27.8644 29.4914 27.8644C29.288 27.8644 29.1524 27.7288 29.1524 27.5254V23.7966C26.5084 23.5932 25.7626 20.8814 25.7626 19.3898C25.7626 19.1864 25.8982 19.0508 26.1016 19.0508C26.305 19.0508 26.4406 19.1864 26.4406 19.3898C26.4406 19.5254 26.5084 23.1186 29.4914 23.1186C32.4745 23.1186 32.5423 19.5253 32.5423 19.3898C32.5423 19.1864 32.6779 19.0508 32.8813 19.0508C35.2542 19.0508 37.1525 19.7287 38.4406 20.9491C39.4575 21.966 39.9999 23.322 39.9999 24.7457V35.5932C40 35.7966 39.8644 35.9322 39.661 35.9322ZM0.339009 35.9322C0.13562 35.9322 0 35.7966 0 35.5932V22.0339C0 21.1525 0.339009 20.339 1.01695 19.661C2.37291 18.3051 4.94912 17.6271 8.4746 17.6271C8.67799 17.6271 8.81361 17.6949 8.88138 17.8983L12.2712 34.1695C12.339 34.3729 12.2035 34.5085 12.0001 34.5762C11.7967 34.644 11.6611 34.5085 11.5933 34.3051L8.27121 18.3051C5.08474 18.3051 2.71192 18.983 1.55935 20.1356C1.01695 20.678 0.745789 21.2881 0.745789 22.0339V35.5932C0.677939 35.7966 0.542399 35.9322 0.339009 35.9322ZM21.3559 32.5423C18.6441 32.5423 16.9491 30.5762 16.9491 27.4576V26.7797C16.9491 24.5424 18.4406 23.0509 20.6779 23.0509H22.0339C24.2711 23.0509 25.7626 24.5424 25.7626 26.7797V27.4576C25.7627 30.5762 24.0678 32.5423 21.3559 32.5423ZM20.678 23.7288C18.8475 23.7288 17.6271 24.9492 17.6271 26.7797V27.4576C17.6271 30.2373 19.0509 31.8644 21.3559 31.8644C23.661 31.8644 25.0847 30.2373 25.0847 27.4576V26.7797C25.0847 24.9492 23.8644 23.7288 22.0339 23.7288H20.678ZM11.8644 25.0847C11.661 25.0847 11.5254 24.9491 11.5254 24.7457V19.5932C11.1186 19.4576 10.8474 19.0508 10.8474 18.644C10.8474 18.1016 11.322 17.627 11.8644 17.627C12.4068 17.627 12.8813 18.1016 12.8813 18.644C12.8813 19.1185 12.6102 19.4576 12.2034 19.5932V24.7457C12.2034 24.9492 12.0678 25.0847 11.8644 25.0847ZM11.8644 18.3051C11.661 18.3051 11.5254 18.4407 11.5254 18.6441C11.5254 18.8475 11.661 18.9831 11.8644 18.9831C12.0678 18.9831 12.2034 18.8475 12.2034 18.6441C12.2034 18.4407 12.0678 18.3051 11.8644 18.3051ZM14.5763 21.6949C14.3051 21.6272 14.2373 21.4915 14.2373 21.2881L14.9152 17.8983C14.983 17.6949 15.1186 17.6271 15.322 17.6271C19.5254 17.6271 22.3729 18.6441 23.3898 20.4746C23.4576 20.6102 23.3898 20.8136 23.2542 20.9491C23.1186 21.0169 22.9152 20.9491 22.7796 20.8135C21.8983 19.2542 19.322 18.3728 15.5932 18.3051L14.9831 21.4237C14.8474 21.5593 14.7118 21.6949 14.5763 21.6949ZM29.4915 18.3051C27.1864 18.3051 25.7627 15.322 25.7627 13.2203V10.5085C25.7627 10.3051 25.8983 10.1695 26.1017 10.1695C26.1695 10.1695 27.9322 10.1695 28.4746 8.33898C28.5424 8.06782 29.017 8.06782 29.0848 8.33898C29.695 10.1017 32.8136 10.1695 32.8136 10.1695C33.017 10.1695 33.1526 10.3051 33.1526 10.5085V13.2203C33.2203 15.322 31.7966 18.3051 29.4915 18.3051ZM26.4407 10.8474V13.2203C26.4407 15.0508 27.661 17.6271 29.4915 17.6271C31.322 17.6271 32.5424 15.0508 32.5424 13.2203V10.8474C31.7288 10.7797 29.7627 10.5084 28.8136 9.28807C28.2034 10.3051 27.1864 10.7119 26.4407 10.8474ZM35.5932 17.6271C35.3898 17.6271 35.2542 17.4915 35.2542 17.2881L34.5762 8.4746C34.4406 6.71186 32.0678 4.74581 30.1694 4.74581H28.8135C26.8474 4.74581 24.5423 6.71194 24.4067 8.4746L23.7288 17.2881C23.7288 17.4915 23.5254 17.6271 23.3898 17.6271C23.1864 17.6271 23.0508 17.4237 23.0508 17.2881L23.7287 8.4746C23.9321 6.37293 26.5084 4.06779 28.8135 4.06779H30.1694C32.2711 4.06779 35.0508 6.10169 35.2542 8.4746L35.9321 17.2881C35.9322 17.4237 35.7966 17.6271 35.5932 17.6271ZM11.8644 15.5932C8.94915 15.5932 8.13559 13.8983 7.52542 12.678C7.52542 12.6102 6.91525 11.3899 6.84748 10.1017C6.4407 9.96609 6.16954 9.55931 6.16954 9.15253V7.79666C6.16954 7.32211 6.4407 6.9831 6.84748 6.84748V6.4407C6.84748 4.4068 8.54237 2.71191 10.5763 2.71191H13.2881C15.322 2.71191 17.0169 4.4068 17.0169 6.4407V6.84748C17.4237 6.9831 17.6948 7.38988 17.6948 7.79666V9.15253C17.6948 9.62708 17.4237 9.96609 17.0169 10.1017C16.9491 11.3898 16.3389 12.6102 16.3389 12.678C15.5932 13.8983 14.7797 15.5932 11.8644 15.5932ZM10.5085 3.38985C8.81361 3.38985 7.45765 4.74581 7.45765 6.4407V7.11864C7.45765 7.32203 7.32203 7.45765 7.11864 7.45765C6.91525 7.45765 6.77963 7.59327 6.77963 7.79666V9.15253C6.77963 9.35592 6.91525 9.49154 7.11864 9.49154C7.32203 9.49154 7.45765 9.62716 7.45765 9.83055C7.45765 11.1187 8.06782 12.4068 8.06782 12.4068C8.81361 13.8983 9.49154 14.9153 11.8645 14.9153C14.2374 14.9153 14.9153 13.8983 15.6611 12.4068C15.6611 12.4068 16.2713 11.1187 16.2713 9.83055C16.2713 9.62716 16.4069 9.49154 16.6103 9.49154C16.8137 9.49154 16.9493 9.35592 16.9493 9.15253V7.79658C16.9493 7.59319 16.8137 7.45757 16.6103 7.45757C16.4069 7.45757 16.2712 7.32203 16.2712 7.11864V6.4407C16.2712 4.74581 14.9152 3.38985 13.2203 3.38985H10.5085ZM13.8983 8.81352H13.2203C13.0169 8.81352 12.8813 8.6779 12.8813 8.47451C12.8813 8.27113 13.0169 8.13551 13.2203 8.13551H13.8983C14.1017 8.13551 14.2373 8.27113 14.2373 8.47451C14.2373 8.6779 14.1017 8.81352 13.8983 8.81352ZM10.5085 8.81352H9.83055C9.62716 8.81352 9.49155 8.6779 9.49155 8.47451C9.49155 8.27113 9.62716 8.13551 9.83055 8.13551H10.5085C10.7119 8.13551 10.8475 8.27113 10.8475 8.47451C10.8475 8.6779 10.7119 8.81352 10.5085 8.81352Z" fill="#1C2A43"/>
</svg>
